<?xml version="1.0" encoding="UTF-8" standalone="no"?>
<!DOCTYPE svg PUBLIC "-//W3C//DTD SVG 1.1//EN"
 "http://www.w3.org/Graphics/SVG/1.1/DTD/svg11.dtd">
<!-- Generated by graphviz version 8.0.5 (20230430.1635)
 -->
<!-- Pages: 1 -->
<svg width="2298pt" height="476pt"
 viewBox="0.00 0.00 2297.75 476.00" xmlns="http://www.w3.org/2000/svg" xmlns:xlink="http://www.w3.org/1999/xlink">
<g id="graph0" class="graph" transform="scale(1 1) rotate(0) translate(4 472)">
<polygon fill="white" stroke="none" points="-4,4 -4,-472 2293.75,-472 2293.75,4 -4,4"/>
<!-- [root] graphql_mutation.account_mutation (expand) -->
<g id="node1" class="node">
<title>[root] graphql_mutation.account_mutation (expand)</title>
<polygon fill="none" stroke="black" points="1717.75,-324 1503.75,-324 1503.75,-288 1717.75,-288 1717.75,-324"/>
<text text-anchor="middle" x="1610.75" y="-300.95" font-family="Times,serif" font-size="14.00">graphql_mutation.account_mutation</text>
</g>
<!-- [root] ibm_iam_service_api_key.klarity_service_key (expand) -->
<g id="node2" class="node">
<title>[root] ibm_iam_service_api_key.klarity_service_key (expand)</title>
<polygon fill="none" stroke="black" points="1127.5,-252 858,-252 858,-216 1127.5,-216 1127.5,-252"/>
<text text-anchor="middle" x="992.75" y="-228.95" font-family="Times,serif" font-size="14.00">ibm_iam_service_api_key.klarity_service_key</text>
</g>
<!-- [root] graphql_mutation.account_mutation (expand)&#45;&gt;[root] ibm_iam_service_api_key.klarity_service_key (expand) -->
<g id="edge1" class="edge">
<title>[root] graphql_mutation.account_mutation (expand)&#45;&gt;[root] ibm_iam_service_api_key.klarity_service_key (expand)</title>
<path fill="none" stroke="black" d="M1503.42,-293.19C1409.87,-282.85 1270.21,-267.31 1138.35,-252.18"/>
<polygon fill="black" stroke="black" points="1138.99,-248.62 1128.65,-250.95 1138.19,-255.57 1138.99,-248.62"/>
</g>
<!-- [root] provider[&quot;registry.terraform.io/sullivtr/graphql&quot;] -->
<g id="node8" class="node">
<title>[root] provider[&quot;registry.terraform.io/sullivtr/graphql&quot;]</title>
<polygon fill="none" stroke="black" points="1415.75,-252 1145.53,-234 1415.75,-216 1685.97,-234 1415.75,-252"/>
<text text-anchor="middle" x="1415.75" y="-228.95" font-family="Times,serif" font-size="14.00">provider[&quot;registry.terraform.io/sullivtr/graphql&quot;]</text>
</g>
<!-- [root] graphql_mutation.account_mutation (expand)&#45;&gt;[root] provider[&quot;registry.terraform.io/sullivtr/graphql&quot;] -->
<g id="edge2" class="edge">
<title>[root] graphql_mutation.account_mutation (expand)&#45;&gt;[root] provider[&quot;registry.terraform.io/sullivtr/graphql&quot;]</title>
<path fill="none" stroke="black" d="M1562.05,-287.52C1532.98,-277.08 1496.13,-263.85 1466.68,-253.28"/>
<polygon fill="black" stroke="black" points="1468.19,-249.75 1457.6,-249.66 1465.83,-256.34 1468.19,-249.75"/>
</g>
<!-- [root] var.ibmcloud_account_description -->
<g id="node9" class="node">
<title>[root] var.ibmcloud_account_description</title>
<polygon fill="none" stroke="black" points="1901.5,-252 1704,-252 1704,-216 1907.5,-216 1907.5,-246 1901.5,-252"/>
<polyline fill="none" stroke="black" points="1901.5,-252 1901.5,-246"/>
<polyline fill="none" stroke="black" points="1907.5,-246 1901.5,-246"/>
<text text-anchor="middle" x="1805.75" y="-228.95" font-family="Times,serif" font-size="14.00">var.ibmcloud_account_description</text>
</g>
<!-- [root] graphql_mutation.account_mutation (expand)&#45;&gt;[root] var.ibmcloud_account_description -->
<g id="edge3" class="edge">
<title>[root] graphql_mutation.account_mutation (expand)&#45;&gt;[root] var.ibmcloud_account_description</title>
<path fill="none" stroke="black" d="M1659.45,-287.52C1686.08,-277.96 1719.24,-266.05 1747.26,-256"/>
<polygon fill="black" stroke="black" points="1748.1,-259.05 1756.33,-252.38 1745.74,-252.47 1748.1,-259.05"/>
</g>
<!-- [root] var.ibmcloud_account_name -->
<g id="node10" class="node">
<title>[root] var.ibmcloud_account_name</title>
<polygon fill="none" stroke="black" points="2093.5,-252 1926,-252 1926,-216 2099.5,-216 2099.5,-246 2093.5,-252"/>
<polyline fill="none" stroke="black" points="2093.5,-252 2093.5,-246"/>
<polyline fill="none" stroke="black" points="2099.5,-246 2093.5,-246"/>
<text text-anchor="middle" x="2012.75" y="-228.95" font-family="Times,serif" font-size="14.00">var.ibmcloud_account_name</text>
</g>
<!-- [root] graphql_mutation.account_mutation (expand)&#45;&gt;[root] var.ibmcloud_account_name -->
<g id="edge4" class="edge">
<title>[root] graphql_mutation.account_mutation (expand)&#45;&gt;[root] var.ibmcloud_account_name</title>
<path fill="none" stroke="black" d="M1712.07,-287.55C1769,-277.72 1841.64,-265.14 1915.24,-252.26"/>
<polygon fill="black" stroke="black" points="1915.39,-255.61 1924.63,-250.44 1914.18,-248.72 1915.39,-255.61"/>
</g>
<!-- [root] var.klarity_account_ownerId -->
<g id="node12" class="node">
<title>[root] var.klarity_account_ownerId</title>
<polygon fill="none" stroke="black" points="2283.75,-252 2117.75,-252 2117.75,-216 2289.75,-216 2289.75,-246 2283.75,-252"/>
<polyline fill="none" stroke="black" points="2283.75,-252 2283.75,-246"/>
<polyline fill="none" stroke="black" points="2289.75,-246 2283.75,-246"/>
<text text-anchor="middle" x="2203.75" y="-228.95" font-family="Times,serif" font-size="14.00">var.klarity_account_ownerId</text>
</g>
<!-- [root] graphql_mutation.account_mutation (expand)&#45;&gt;[root] var.klarity_account_ownerId -->
<g id="edge5" class="edge">
<title>[root] graphql_mutation.account_mutation (expand)&#45;&gt;[root] var.klarity_account_ownerId</title>
<path fill="none" stroke="black" d="M1717.88,-295.82C1816.45,-286.85 1966.91,-271.89 2106.84,-252.22"/>
<polygon fill="black" stroke="black" points="2106.91,-255.6 2116.32,-250.73 2105.93,-248.67 2106.91,-255.6"/>
</g>
<!-- [root] ibm_iam_service_id.klarity (expand) -->
<g id="node3" class="node">
<title>[root] ibm_iam_service_id.klarity (expand)</title>
<polygon fill="none" stroke="black" points="655.12,-180 488.38,-180 488.38,-144 655.12,-144 655.12,-180"/>
<text text-anchor="middle" x="571.75" y="-156.95" font-family="Times,serif" font-size="14.00">ibm_iam_service_id.klarity</text>
</g>
<!-- [root] ibm_iam_service_api_key.klarity_service_key (expand)&#45;&gt;[root] ibm_iam_service_id.klarity (expand) -->
<g id="edge6" class="edge">
<title>[root] ibm_iam_service_api_key.klarity_service_key (expand)&#45;&gt;[root] ibm_iam_service_id.klarity (expand)</title>
<path fill="none" stroke="black" d="M887.6,-215.52C819.66,-204.22 731.99,-189.64 666.25,-178.71"/>
<polygon fill="black" stroke="black" points="666.93,-175.11 656.49,-176.92 665.78,-182.02 666.93,-175.11"/>
</g>
<!-- [root] provider[&quot;registry.terraform.io/ibm&#45;cloud/ibm&quot;] -->
<g id="node7" class="node">
<title>[root] provider[&quot;registry.terraform.io/ibm&#45;cloud/ibm&quot;]</title>
<polygon fill="none" stroke="black" points="571.75,-108 302.98,-90 571.75,-72 840.52,-90 571.75,-108"/>
<text text-anchor="middle" x="571.75" y="-84.95" font-family="Times,serif" font-size="14.00">provider[&quot;registry.terraform.io/ibm&#45;cloud/ibm&quot;]</text>
</g>
<!-- [root] ibm_iam_service_id.klarity (expand)&#45;&gt;[root] provider[&quot;registry.terraform.io/ibm&#45;cloud/ibm&quot;] -->
<g id="edge7" class="edge">
<title>[root] ibm_iam_service_id.klarity (expand)&#45;&gt;[root] provider[&quot;registry.terraform.io/ibm&#45;cloud/ibm&quot;]</title>
<path fill="none" stroke="black" d="M571.75,-143.7C571.75,-136.24 571.75,-127.32 571.75,-118.97"/>
<polygon fill="black" stroke="black" points="575.25,-119.1 571.75,-109.1 568.25,-119.1 575.25,-119.1"/>
</g>
<!-- [root] ibm_iam_service_policy.all_account_management (expand) -->
<g id="node4" class="node">
<title>[root] ibm_iam_service_policy.all_account_management (expand)</title>
<polygon fill="none" stroke="black" points="293.5,-252 0,-252 0,-216 293.5,-216 293.5,-252"/>
<text text-anchor="middle" x="146.75" y="-228.95" font-family="Times,serif" font-size="14.00">ibm_iam_service_policy.all_account_management</text>
</g>
<!-- [root] ibm_iam_service_policy.all_account_management (expand)&#45;&gt;[root] ibm_iam_service_id.klarity (expand) -->
<g id="edge8" class="edge">
<title>[root] ibm_iam_service_policy.all_account_management (expand)&#45;&gt;[root] ibm_iam_service_id.klarity (expand)</title>
<path fill="none" stroke="black" d="M252.9,-215.52C321.86,-204.16 410.96,-189.48 477.43,-178.53"/>
<polygon fill="black" stroke="black" points="477.6,-181.89 486.9,-176.81 476.47,-174.98 477.6,-181.89"/>
</g>
<!-- [root] ibm_iam_service_policy.all_iam_services (expand) -->
<g id="node5" class="node">
<title>[root] ibm_iam_service_policy.all_iam_services (expand)</title>
<polygon fill="none" stroke="black" points="557.5,-252 312,-252 312,-216 557.5,-216 557.5,-252"/>
<text text-anchor="middle" x="434.75" y="-228.95" font-family="Times,serif" font-size="14.00">ibm_iam_service_policy.all_iam_services</text>
</g>
<!-- [root] ibm_iam_service_policy.all_iam_services (expand)&#45;&gt;[root] ibm_iam_service_id.klarity (expand) -->
<g id="edge9" class="edge">
<title>[root] ibm_iam_service_policy.all_iam_services (expand)&#45;&gt;[root] ibm_iam_service_id.klarity (expand)</title>
<path fill="none" stroke="black" d="M468.97,-215.52C486.92,-206.34 509.11,-195.01 528.26,-185.22"/>
<polygon fill="black" stroke="black" points="529.66,-187.93 536.97,-180.26 526.47,-181.69 529.66,-187.93"/>
</g>
<!-- [root] ibm_iam_service_policy.all_resource_groups (expand) -->
<g id="node6" class="node">
<title>[root] ibm_iam_service_policy.all_resource_groups (expand)</title>
<polygon fill="none" stroke="black" points="839.5,-252 576,-252 576,-216 839.5,-216 839.5,-252"/>
<text text-anchor="middle" x="707.75" y="-228.95" font-family="Times,serif" font-size="14.00">ibm_iam_service_policy.all_resource_groups</text>
</g>
<!-- [root] ibm_iam_service_policy.all_resource_groups (expand)&#45;&gt;[root] ibm_iam_service_id.klarity (expand) -->
<g id="edge10" class="edge">
<title>[root] ibm_iam_service_policy.all_resource_groups (expand)&#45;&gt;[root] ibm_iam_service_id.klarity (expand)</title>
<path fill="none" stroke="black" d="M673.78,-215.52C655.96,-206.34 633.94,-195.01 614.92,-185.22"/>
<polygon fill="black" stroke="black" points="616.78,-181.73 606.28,-180.26 613.57,-187.95 616.78,-181.73"/>
</g>
<!-- [root] var.ibmcloud_api_key -->
<g id="node11" class="node">
<title>[root] var.ibmcloud_api_key</title>
<polygon fill="none" stroke="black" points="573.5,-36 442,-36 442,0 579.5,0 579.5,-30 573.5,-36"/>
<polyline fill="none" stroke="black" points="573.5,-36 573.5,-30"/>
<polyline fill="none" stroke="black" points="579.5,-30 573.5,-30"/>
<text text-anchor="middle" x="510.75" y="-12.95" font-family="Times,serif" font-size="14.00">var.ibmcloud_api_key</text>
</g>
<!-- [root] provider[&quot;registry.terraform.io/ibm&#45;cloud/ibm&quot;]&#45;&gt;[root] var.ibmcloud_api_key -->
<g id="edge15" class="edge">
<title>[root] provider[&quot;registry.terraform.io/ibm&#45;cloud/ibm&quot;]&#45;&gt;[root] var.ibmcloud_api_key</title>
<path fill="none" stroke="black" d="M557.6,-72.76C550.2,-64.27 540.97,-53.68 532.66,-44.15"/>
<polygon fill="black" stroke="black" points="534.88,-42.36 525.67,-37.12 529.6,-46.96 534.88,-42.36"/>
</g>
<!-- [root] var.region -->
<g id="node16" class="node">
<title>[root] var.region</title>
<polygon fill="none" stroke="black" points="662.12,-36 597.38,-36 597.38,0 668.12,0 668.12,-30 662.12,-36"/>
<polyline fill="none" stroke="black" points="662.12,-36 662.12,-30"/>
<polyline fill="none" stroke="black" points="668.12,-30 662.12,-30"/>
<text text-anchor="middle" x="632.75" y="-12.95" font-family="Times,serif" font-size="14.00">var.region</text>
</g>
<!-- [root] provider[&quot;registry.terraform.io/ibm&#45;cloud/ibm&quot;]&#45;&gt;[root] var.region -->
<g id="edge16" class="edge">
<title>[root] provider[&quot;registry.terraform.io/ibm&#45;cloud/ibm&quot;]&#45;&gt;[root] var.region</title>
<path fill="none" stroke="black" d="M585.9,-72.76C593.3,-64.27 602.53,-53.68 610.84,-44.15"/>
<polygon fill="black" stroke="black" points="613.9,-46.96 617.83,-37.12 608.62,-42.36 613.9,-46.96"/>
</g>
<!-- [root] var.klarity_api_id -->
<g id="node13" class="node">
<title>[root] var.klarity_api_id</title>
<polygon fill="none" stroke="black" points="1324.75,-180 1218.75,-180 1218.75,-144 1330.75,-144 1330.75,-174 1324.75,-180"/>
<polyline fill="none" stroke="black" points="1324.75,-180 1324.75,-174"/>
<polyline fill="none" stroke="black" points="1330.75,-174 1324.75,-174"/>
<text text-anchor="middle" x="1274.75" y="-156.95" font-family="Times,serif" font-size="14.00">var.klarity_api_id</text>
</g>
<!-- [root] provider[&quot;registry.terraform.io/sullivtr/graphql&quot;]&#45;&gt;[root] var.klarity_api_id -->
<g id="edge18" class="edge">
<title>[root] provider[&quot;registry.terraform.io/sullivtr/graphql&quot;]&#45;&gt;[root] var.klarity_api_id</title>
<path fill="none" stroke="black" d="M1384.81,-217.64C1365.7,-208.15 1340.87,-195.82 1319.62,-185.28"/>
<polygon fill="black" stroke="black" points="1321.35,-181.73 1310.84,-180.42 1318.24,-188 1321.35,-181.73"/>
</g>
<!-- [root] var.klarity_api_secret -->
<g id="node14" class="node">
<title>[root] var.klarity_api_secret</title>
<polygon fill="none" stroke="black" points="1476.25,-180 1349.25,-180 1349.25,-144 1482.25,-144 1482.25,-174 1476.25,-180"/>
<polyline fill="none" stroke="black" points="1476.25,-180 1476.25,-174"/>
<polyline fill="none" stroke="black" points="1482.25,-174 1476.25,-174"/>
<text text-anchor="middle" x="1415.75" y="-156.95" font-family="Times,serif" font-size="14.00">var.klarity_api_secret</text>
</g>
<!-- [root] provider[&quot;registry.terraform.io/sullivtr/graphql&quot;]&#45;&gt;[root] var.klarity_api_secret -->
<g id="edge19" class="edge">
<title>[root] provider[&quot;registry.terraform.io/sullivtr/graphql&quot;]&#45;&gt;[root] var.klarity_api_secret</title>
<path fill="none" stroke="black" d="M1415.75,-215.7C1415.75,-208.24 1415.75,-199.32 1415.75,-190.97"/>
<polygon fill="black" stroke="black" points="1419.25,-191.1 1415.75,-181.1 1412.25,-191.1 1419.25,-191.1"/>
</g>
<!-- [root] var.klarity_host_name -->
<g id="node15" class="node">
<title>[root] var.klarity_host_name</title>
<polygon fill="none" stroke="black" points="1631.5,-180 1500,-180 1500,-144 1637.5,-144 1637.5,-174 1631.5,-180"/>
<polyline fill="none" stroke="black" points="1631.5,-180 1631.5,-174"/>
<polyline fill="none" stroke="black" points="1637.5,-174 1631.5,-174"/>
<text text-anchor="middle" x="1568.75" y="-156.95" font-family="Times,serif" font-size="14.00">var.klarity_host_name</text>
</g>
<!-- [root] provider[&quot;registry.terraform.io/sullivtr/graphql&quot;]&#45;&gt;[root] var.klarity_host_name -->
<g id="edge20" class="edge">
<title>[root] provider[&quot;registry.terraform.io/sullivtr/graphql&quot;]&#45;&gt;[root] var.klarity_host_name</title>
<path fill="none" stroke="black" d="M1448.95,-217.81C1470.02,-208.17 1497.63,-195.54 1521.03,-184.83"/>
<polygon fill="black" stroke="black" points="1522.13,-187.72 1529.77,-180.38 1519.22,-181.36 1522.13,-187.72"/>
</g>
<!-- [root] provider[&quot;registry.terraform.io/ibm&#45;cloud/ibm&quot;] (close) -->
<g id="node17" class="node">
<title>[root] provider[&quot;registry.terraform.io/ibm&#45;cloud/ibm&quot;] (close)</title>
<ellipse fill="none" stroke="black" cx="707.75" cy="-306" rx="241.23" ry="18"/>
<text text-anchor="middle" x="707.75" y="-300.95" font-family="Times,serif" font-size="14.00">[root] provider[&quot;registry.terraform.io/ibm&#45;cloud/ibm&quot;] (close)</text>
</g>
<!-- [root] provider[&quot;registry.terraform.io/ibm&#45;cloud/ibm&quot;] (close)&#45;&gt;[root] ibm_iam_service_api_key.klarity_service_key (expand) -->
<g id="edge11" class="edge">
<title>[root] provider[&quot;registry.terraform.io/ibm&#45;cloud/ibm&quot;] (close)&#45;&gt;[root] ibm_iam_service_api_key.klarity_service_key (expand)</title>
<path fill="none" stroke="black" d="M775.65,-288.32C816.34,-278.33 868.33,-265.56 911.23,-255.02"/>
<polygon fill="black" stroke="black" points="911.76,-258.25 920.64,-252.47 910.09,-251.45 911.76,-258.25"/>
</g>
<!-- [root] provider[&quot;registry.terraform.io/ibm&#45;cloud/ibm&quot;] (close)&#45;&gt;[root] ibm_iam_service_policy.all_account_management (expand) -->
<g id="edge12" class="edge">
<title>[root] provider[&quot;registry.terraform.io/ibm&#45;cloud/ibm&quot;] (close)&#45;&gt;[root] ibm_iam_service_policy.all_account_management (expand)</title>
<path fill="none" stroke="black" d="M587.4,-289.98C502.62,-279.4 388.49,-265.16 297.63,-253.83"/>
<polygon fill="black" stroke="black" points="298.3,-250.26 287.95,-252.49 297.43,-257.2 298.3,-250.26"/>
</g>
<!-- [root] provider[&quot;registry.terraform.io/ibm&#45;cloud/ibm&quot;] (close)&#45;&gt;[root] ibm_iam_service_policy.all_iam_services (expand) -->
<g id="edge13" class="edge">
<title>[root] provider[&quot;registry.terraform.io/ibm&#45;cloud/ibm&quot;] (close)&#45;&gt;[root] ibm_iam_service_policy.all_iam_services (expand)</title>
<path fill="none" stroke="black" d="M642.36,-288.23C603.61,-278.3 554.27,-265.64 513.4,-255.17"/>
<polygon fill="black" stroke="black" points="514.49,-251.58 503.94,-252.48 512.75,-258.36 514.49,-251.58"/>
</g>
<!-- [root] provider[&quot;registry.terraform.io/ibm&#45;cloud/ibm&quot;] (close)&#45;&gt;[root] ibm_iam_service_policy.all_resource_groups (expand) -->
<g id="edge14" class="edge">
<title>[root] provider[&quot;registry.terraform.io/ibm&#45;cloud/ibm&quot;] (close)&#45;&gt;[root] ibm_iam_service_policy.all_resource_groups (expand)</title>
<path fill="none" stroke="black" d="M707.75,-287.7C707.75,-280.24 707.75,-271.32 707.75,-262.97"/>
<polygon fill="black" stroke="black" points="711.25,-263.1 707.75,-253.1 704.25,-263.1 711.25,-263.1"/>
</g>
<!-- [root] provider[&quot;registry.terraform.io/sullivtr/graphql&quot;] (close) -->
<g id="node18" class="node">
<title>[root] provider[&quot;registry.terraform.io/sullivtr/graphql&quot;] (close)</title>
<ellipse fill="none" stroke="black" cx="1305.75" cy="-378" rx="242.26" ry="18"/>
<text text-anchor="middle" x="1305.75" y="-372.95" font-family="Times,serif" font-size="14.00">[root] provider[&quot;registry.terraform.io/sullivtr/graphql&quot;] (close)</text>
</g>
<!-- [root] provider[&quot;registry.terraform.io/sullivtr/graphql&quot;] (close)&#45;&gt;[root] graphql_mutation.account_mutation (expand) -->
<g id="edge17" class="edge">
<title>[root] provider[&quot;registry.terraform.io/sullivtr/graphql&quot;] (close)&#45;&gt;[root] graphql_mutation.account_mutation (expand)</title>
<path fill="none" stroke="black" d="M1378.03,-360.41C1421.83,-350.36 1477.97,-337.47 1524.14,-326.88"/>
<polygon fill="black" stroke="black" points="1524.77,-330.1 1533.73,-324.45 1523.2,-323.27 1524.77,-330.1"/>
</g>
<!-- [root] root -->
<g id="node19" class="node">
<title>[root] root</title>
<ellipse fill="none" stroke="black" cx="1061.75" cy="-450" rx="49.3" ry="18"/>
<text text-anchor="middle" x="1061.75" y="-444.95" font-family="Times,serif" font-size="14.00">[root] root</text>
</g>
<!-- [root] root&#45;&gt;[root] provider[&quot;registry.terraform.io/ibm&#45;cloud/ibm&quot;] (close) -->
<g id="edge21" class="edge">
<title>[root] root&#45;&gt;[root] provider[&quot;registry.terraform.io/ibm&#45;cloud/ibm&quot;] (close)</title>
<path fill="none" stroke="black" d="M1029.4,-436.02C968.18,-411.47 834.91,-358.01 760.56,-328.19"/>
<polygon fill="black" stroke="black" points="762.06,-324.61 751.48,-324.14 759.46,-331.11 762.06,-324.61"/>
</g>
<!-- [root] root&#45;&gt;[root] provider[&quot;registry.terraform.io/sullivtr/graphql&quot;] (close) -->
<g id="edge22" class="edge">
<title>[root] root&#45;&gt;[root] provider[&quot;registry.terraform.io/sullivtr/graphql&quot;] (close)</title>
<path fill="none" stroke="black" d="M1099.61,-438.14C1136.04,-427.69 1191.99,-411.63 1236.42,-398.89"/>
<polygon fill="black" stroke="black" points="1237.22,-402.02 1245.86,-395.89 1235.29,-395.29 1237.22,-402.02"/>
</g>
</g>
</svg>
